/* XPM */
static char * icon_xpm[] = {
"16 16 15 1",
" 	c None",
".	c #000000",
"+	c #666666",
"@	c #2F2F2F",
"#	c #FFFFFF",
"$	c #FFD701",
"%	c #EACB20",
"&	c #FFD800",
"*	c #FFD008",
"=	c #919191",
"-	c #C9C6C9",
";	c #ABABAB",
">	c #D0B521",
",	c #FFD801",
"'	c #444444",
"     .+@@@@@    ",
"    .+@@@@@@@   ",
"    .+@@@##@#   ",
"   ..+@@##.#.   ",
"   .+@@@##.#.$  ",
"  ..+@@%&&&*&&&&",
"  .+@@@%&&&&&&&&",
" ..+@@@.........",
" .+@.@@%%%%%%%& ",
" .+@.=@@-####-; ",
" .+..=@-######-;",
" .+..=@-######-;",
" .+.=.@@-#####-;",
" .+@@@@@@-----; ",
".+@@>,,,,,,,>>> ",
"'@@@>>>>,,,,,>>>"};
